<svg version="1.1" id="Layer_1" xmlns="http://www.w3.org/2000/svg" xmlns:xlink="http://www.w3.org/1999/xlink" x="0px" y="0px"
	 width="100%" viewBox="0 0 128 128" enable-background="new 0 0 128 128" xml:space="preserve">
<path fill="#6B8AB3" opacity="1.000000" stroke="none" 
	d="
M55.702183,1.258245 
	C67.354225,1.000000 78.708458,1.000000 90.531342,1.000000 
	C93.636040,5.173221 88.590775,5.023569 87.319801,7.409170 
	C85.366211,9.341207 82.607620,9.023738 80.698196,11.063648 
	C79.957146,11.374590 79.513397,11.495647 78.739105,11.697087 
	C77.436943,12.114790 76.813187,12.656452 76.400261,13.711583 
	C75.345345,16.407228 73.392937,16.244587 71.940979,14.320001 
	C70.565056,12.496199 68.700989,11.742970 66.852333,10.796342 
	C66.066551,12.414634 66.963432,14.411536 65.539963,16.206793 
	C65.031036,16.468590 64.803070,16.521181 64.232346,16.503151 
	C62.356113,15.310737 62.512634,13.666511 62.557205,12.068142 
	C62.653488,8.615410 61.086876,7.339255 58.393551,8.169974 
	C60.633026,7.514731 62.538437,8.241699 62.526806,11.581906 
	C62.521923,12.983212 62.460236,14.359356 62.978218,16.063484 
	C63.827705,19.022766 60.925949,19.562225 60.019211,21.646412 
	C58.708412,22.613180 57.542313,23.070501 56.033257,23.613037 
	C54.192524,23.896570 52.585621,24.050592 51.732407,25.448626 
	C49.230244,29.548557 47.954018,26.621239 46.880291,24.519304 
	C45.300468,21.426630 43.108677,19.340075 39.569046,19.042707 
	C38.024700,18.912966 36.424957,19.221903 36.099342,21.086155 
	C35.809368,22.746387 37.126755,23.272121 38.437916,23.781172 
	C40.620499,24.628548 43.066544,25.451878 41.192608,28.267202 
	C42.840515,26.563601 42.102139,25.292446 39.797531,24.289564 
	C37.946465,23.484053 34.801014,22.875919 36.806377,20.073843 
	C38.184250,18.148560 40.924538,18.443399 43.018429,20.170660 
	C47.115395,23.550270 49.921726,27.438780 48.339756,33.515079 
	C48.210434,34.731304 47.817684,35.403408 46.774216,36.098839 
	C41.184639,36.532600 35.980968,36.702793 30.429640,37.395760 
	C26.113464,39.343159 28.117773,43.153687 26.973080,46.269154 
	C20.857851,50.633144 14.295196,53.507397 8.034571,56.929577 
	C5.991426,58.046394 3.919131,59.317169 1.292643,57.265942 
	C1.000000,48.312439 1.000000,39.624874 1.000000,30.468655 
	C4.178062,26.364161 8.804606,25.066824 12.780406,22.722183 
	C17.778904,19.774429 22.837166,16.930368 28.377216,14.248035 
	C29.794273,13.954930 30.987129,14.051321 31.982681,12.755835 
	C33.774071,12.059954 34.987431,11.084067 36.459938,9.896416 
	C36.970058,9.690878 37.184410,9.639933 37.725403,9.557425 
	C38.269058,9.511744 38.486073,9.497625 39.024529,9.448245 
	C40.018528,9.355107 40.581512,9.004107 41.509293,8.654115 
	C42.537117,8.507225 43.222565,8.339609 44.270775,8.504599 
	C45.886662,8.818544 46.696991,9.614190 46.947433,10.840023 
	C47.260498,12.372383 47.950394,13.331011 49.639805,12.868757 
	C51.545044,12.347450 50.969040,10.921745 50.650581,9.655893 
	C50.446156,8.843326 50.451454,8.021998 50.393272,6.827852 
	C49.895702,2.616131 53.532944,2.966063 55.702183,1.258245 
z"/>
<path fill="#6488B5" opacity="1.000000" stroke="none" 
	d="
M119.722237,1.247426 
	C129.000000,1.000000 129.000000,1.000000 129.000000,10.193237 
	C129.000000,12.815686 129.000000,15.438134 129.000000,18.530293 
	C126.764221,22.435495 122.839478,23.387796 119.569702,25.224527 
	C113.659393,28.544518 107.521530,31.467201 102.373505,36.669979 
	C90.233116,36.453262 78.486153,36.638908 66.285500,36.078171 
	C64.505478,34.652607 64.006416,33.136311 64.191986,30.945696 
	C65.292862,28.270147 67.627213,28.357531 69.766159,27.351845 
	C74.102394,27.008024 75.987968,23.121572 79.727348,21.789688 
	C80.522202,21.554941 80.993423,21.530563 81.814659,21.650251 
	C85.825409,21.476059 89.416451,23.424326 93.122658,22.052053 
	C90.958092,22.814508 88.829048,23.361713 87.035538,20.738087 
	C86.787323,18.055208 88.131477,17.005795 90.593636,16.568266 
	C91.969795,16.507431 92.940964,16.682673 93.918892,16.776644 
	C98.211411,17.189117 99.723259,14.767903 100.035431,10.628942 
	C106.414993,6.913312 112.661079,3.618430 119.722237,1.247426 
z"/>
<path fill="#718CB0" opacity="1.000000" stroke="none" 
	d="
M30.343683,15.705266 
	C22.850849,19.917301 15.594926,23.890633 8.319798,27.828484 
	C6.278216,28.933542 4.189366,29.962534 1.388940,29.984592 
	C1.000000,21.544518 1.209060,13.081307 0.896930,4.637362 
	C0.772372,1.267744 1.950055,0.913979 4.827662,0.936332 
	C21.571825,1.066398 38.317513,1.000000 55.531342,1.000000 
	C55.619892,3.451004 52.843693,4.222718 52.064240,6.791699 
	C50.755505,10.134686 47.701893,8.501586 45.423927,9.776367 
	C44.379181,9.971101 43.641819,9.982172 42.535744,9.996272 
	C41.082127,9.794465 40.348579,10.628343 39.133095,10.961981 
	C38.833176,10.999836 38.358997,10.978776 38.121887,10.968647 
	C36.030037,9.535238 32.499565,11.747474 31.683201,7.943776 
	C31.470201,10.572234 32.051086,13.166423 30.343683,15.705266 
z"/>
<path fill="#5F87BA" opacity="1.000000" stroke="none" 
	d="
M1.307028,114.283478 
	C1.000000,103.979103 1.000000,93.958214 1.000000,83.468658 
	C6.328918,76.265427 14.310295,74.083534 21.764751,71.073990 
	C23.464682,70.387680 25.349602,71.276230 26.989424,72.983032 
	C27.720394,77.309219 27.541643,81.246048 27.502323,85.676010 
	C27.551411,91.576706 27.401062,96.982635 27.520668,102.843216 
	C27.146595,104.107918 26.713869,104.858696 25.907614,105.175644 
	C19.091249,107.855278 12.895234,111.808281 6.204131,114.746552 
	C4.587268,115.456566 3.094599,115.955681 1.307028,114.283478 
z"/>
<path fill="#5F87BA" opacity="1.000000" stroke="none" 
	d="
M102.908859,34.931168 
	C103.056160,32.900604 103.432175,31.460253 104.900055,30.664783 
	C112.540909,26.524065 119.574799,21.155699 128.620102,19.039673 
	C129.000000,27.687563 129.000000,36.375126 129.000000,45.531345 
	C123.678474,51.720493 116.558792,54.494106 109.705284,57.668823 
	C107.765572,58.567341 105.833008,57.748047 103.769135,56.376617 
	C102.350746,49.184090 103.025314,42.280617 102.908859,34.931168 
z"/>
<path fill="#6588B5" opacity="1.000000" stroke="none" 
	d="
M25.969624,72.687973 
	C20.312197,72.750961 16.454384,76.064690 12.088598,77.977631 
	C8.589118,79.510994 5.159787,81.204453 1.349662,82.913437 
	C1.000000,74.645767 1.000000,66.291534 1.000000,57.468651 
	C7.895513,54.967861 13.756580,50.772533 20.198784,47.789886 
	C21.695900,47.096741 23.041021,46.079620 25.127262,46.020241 
	C26.205456,46.412273 27.068613,46.921104 27.100384,47.741772 
	C27.418570,55.960861 28.564758,64.208717 25.969624,72.687973 
z"/>
<path fill="#5583BC" opacity="1.000000" stroke="none" 
	d="
M1.000000,114.472664 
	C6.965834,112.528946 11.877541,108.812836 17.355768,106.301537 
	C19.741199,105.208015 22.031876,103.903572 25.146992,103.989990 
	C28.037989,104.722130 27.303219,106.858124 27.421484,108.562500 
	C27.733461,113.058456 27.289530,117.574020 27.838089,122.478691 
	C28.241835,123.383209 28.578136,123.833992 29.338423,124.419426 
	C32.984482,125.852432 36.673862,123.879333 40.127884,126.229973 
	C40.613644,127.136055 40.641106,127.702995 40.237877,128.639557 
	C27.934608,129.000000 15.868747,128.946030 3.804261,129.050613 
	C1.676866,129.069061 0.703544,128.925674 0.919014,126.342842 
	C1.233951,122.567696 1.000000,118.746750 1.000000,114.472664 
z"/>
<path fill="#5184C3" opacity="1.000000" stroke="none" 
	d="
M128.695099,66.715668 
	C129.000000,74.020950 129.000000,81.041893 129.000000,88.531418 
	C123.716682,93.836166 117.017746,96.267006 110.851875,99.588799 
	C108.869080,100.656998 106.698921,100.072433 104.416389,98.705193 
	C103.952499,98.133057 103.813538,97.862656 103.577110,97.142616 
	C102.808823,94.132271 103.165932,91.501350 102.955505,88.440323 
	C103.269157,84.691032 102.358505,81.402740 103.168274,77.693848 
	C109.911636,72.799629 116.853699,68.964264 124.245529,65.951599 
	C125.760284,65.334236 127.129410,65.220085 128.695099,66.715668 
z"/>
<path fill="#5886BF" opacity="1.000000" stroke="none" 
	d="
M129.000000,66.531464 
	C123.376381,68.527878 118.269905,71.200356 113.294014,74.145439 
	C111.008308,75.498283 108.755348,76.884621 105.613968,76.974884 
	C104.312904,76.548767 103.377907,75.849113 103.338425,74.888641 
	C103.087044,68.771820 101.935257,62.592781 104.758438,56.299316 
	C110.616364,55.714237 114.780685,52.499943 119.267456,50.112175 
	C122.181969,48.561131 124.901169,46.627003 128.628738,46.039413 
	C129.000000,52.687645 129.000000,59.375290 129.000000,66.531464 
z"/>
<path fill="#4A82C8" opacity="1.000000" stroke="none" 
	d="
M104.784721,98.179291 
	C108.690720,98.243187 111.538330,96.754021 114.428986,95.099686 
	C118.799240,92.598595 122.998497,89.623634 128.611053,89.015366 
	C129.000000,95.021156 129.000000,101.042305 129.000000,107.531731 
	C123.627548,114.257629 116.051239,116.803307 108.797913,119.822685 
	C107.080246,120.537704 105.254547,119.584984 103.529961,117.991211 
	C102.610069,111.137360 101.129433,104.627960 104.784721,98.179291 
z"/>
<path fill="#4380CC" opacity="1.000000" stroke="none" 
	d="
M104.852356,118.095703 
	C111.104988,117.604301 115.648827,114.020859 120.596619,111.489441 
	C123.105415,110.205894 125.531609,108.842499 128.641693,108.083038 
	C129.000000,113.636986 128.789124,119.284958 129.081879,124.906700 
	C129.248154,128.099747 128.769516,129.161194 125.129478,129.115234 
	C105.734695,128.870483 86.335190,129.000000 66.468658,129.000000 
	C65.617027,128.545700 65.428947,128.021347 65.579712,127.017776 
	C65.932495,126.399994 66.140381,126.191757 66.740723,125.785370 
	C74.076225,124.427177 81.047523,125.061485 88.439560,125.258217 
	C89.144341,125.264793 89.421501,125.271797 90.104523,125.297043 
	C94.269958,125.366707 98.101425,126.032127 101.926697,123.793533 
	C103.562256,122.025696 102.413536,119.449486 104.852356,118.095703 
z"/>
<path fill="#698AB5" opacity="1.000000" stroke="none" 
	d="
M119.531342,1.000000 
	C115.439377,6.980233 108.581482,8.793156 101.543190,10.981992 
	C99.836853,10.951048 99.511177,9.345361 98.364120,9.130610 
	C96.760307,8.830345 94.999611,8.273178 93.559593,9.339282 
	C91.975258,10.512225 92.511063,12.157463 93.148705,13.690760 
	C93.767937,15.179763 93.674095,16.557697 92.155182,17.873749 
	C90.250923,18.129370 88.867760,18.585207 88.109924,20.534565 
	C86.722717,22.956387 84.335426,22.235399 82.178436,22.988438 
	C81.400467,23.006744 80.965279,23.015524 80.203720,23.031773 
	C77.257233,24.354057 74.299408,23.508181 71.259415,24.256823 
	C68.971611,23.362223 67.147926,21.067648 64.601471,23.864376 
	C64.040413,24.088535 63.799271,24.138306 63.187531,24.154461 
	C61.485249,23.446983 60.257328,22.628189 59.109394,21.189001 
	C59.910667,19.463583 60.821484,18.093861 61.865562,16.445389 
	C62.327782,15.771141 62.744907,15.557782 63.574852,15.755770 
	C64.090683,15.957287 64.295319,15.957329 64.806908,15.957253 
	C66.138672,15.137018 66.401016,13.857880 67.305107,12.553616 
	C67.824196,12.231074 68.057060,12.147689 68.657700,12.033301 
	C69.185844,12.027496 69.386932,11.999104 69.500740,12.085580 
	C75.030754,16.287657 75.029915,16.288759 77.824387,10.121660 
	C78.536942,9.999762 78.907387,9.999747 79.555664,9.999724 
	C81.879898,8.963187 83.899994,7.868607 86.323219,8.041379 
	C86.979904,8.088200 86.172302,8.261772 86.798538,8.068647 
	C86.925751,8.029416 86.350266,7.745875 86.113907,7.146896 
	C86.509666,4.123875 89.654297,3.795985 90.865723,1.299591 
	C100.354225,1.000000 109.708458,1.000000 119.531342,1.000000 
z"/>
<path fill="#4272AE" opacity="1.000000" stroke="none" 
	d="
M65.814499,126.884048 
	C66.067772,127.732468 66.046570,128.094421 66.012680,128.728195 
	C57.645767,129.000000 49.291534,129.000000 40.468651,129.000000 
	C39.983425,128.637131 39.966850,128.274246 39.947472,127.638885 
	C40.545822,126.124405 41.374611,125.374992 42.897076,125.216316 
	C49.912369,124.485168 56.914879,124.569023 63.914082,125.319664 
	C64.532120,125.385941 65.035934,125.974373 65.814499,126.884048 
z"/>
<path fill="#15141A" opacity="1.000000" stroke="none" 
	d="
M105.114868,117.534424 
	C105.061989,120.366653 104.885483,122.745865 104.577202,125.552185 
	C103.584633,126.920204 102.456940,126.329369 101.146530,126.495956 
	C100.621620,126.474480 100.411949,126.456200 99.905273,126.324928 
	C99.415253,126.119354 99.222244,126.026764 98.757660,125.755455 
	C98.167564,125.268486 97.925461,124.907768 97.677277,124.179840 
	C97.572449,123.418999 97.559486,122.980087 97.636505,122.221565 
	C97.986176,121.326958 98.255997,120.747253 98.438042,119.796829 
	C97.475899,115.426857 93.646271,113.212685 91.808853,109.317360 
	C91.087440,108.642250 90.664291,108.146103 90.129242,107.324585 
	C89.695732,106.700821 89.414696,106.366737 88.926132,105.772545 
	C84.835564,99.634682 81.930420,93.159477 77.446968,87.259155 
	C76.889313,86.682487 76.575996,86.347443 76.046844,85.742294 
	C75.077187,84.575363 74.683647,83.473244 73.947151,82.154388 
	C73.514992,81.425362 73.266243,81.002701 72.839211,80.234802 
	C72.543900,79.650810 72.429474,79.410530 72.189117,78.780807 
	C72.030220,78.114723 71.997276,77.838074 72.003769,77.138153 
	C73.092628,74.424927 74.428574,72.279984 75.793701,69.698425 
	C81.599426,68.751411 87.107185,68.930847 93.011444,68.588577 
	C95.609978,68.636513 98.488197,71.211472 99.435074,66.872932 
	C100.371048,62.584320 99.265282,60.224720 95.423470,59.238689 
	C90.063995,56.877747 85.437187,53.712955 79.438026,52.833302 
	C76.869148,51.133945 73.728241,50.773048 72.516296,47.384933 
	C72.323410,45.508305 71.753349,44.089447 72.351044,42.204155 
	C72.873940,41.331451 73.268028,40.907066 74.062592,40.281940 
	C76.308990,39.255566 78.207657,39.469112 80.484161,40.118256 
	C86.443916,40.857288 91.319176,43.911777 97.141571,44.861233 
	C98.505203,44.637241 99.536613,44.330673 99.287109,43.008545 
	C98.991539,41.442364 97.683899,41.642426 96.155006,41.659443 
	C92.034439,40.160061 88.132874,40.454895 83.837578,40.659508 
	C83.162514,40.659023 82.891136,40.633518 82.216553,40.508644 
	C81.539948,40.342613 81.266556,40.275955 80.577698,40.109291 
	C78.135818,39.410473 76.088745,39.383293 73.547180,39.844505 
	C61.074390,39.910355 49.081280,40.023922 37.088799,40.196018 
	C36.804802,40.200096 36.525299,40.517349 35.769764,40.641079 
	C33.413532,40.376019 31.492327,41.037758 29.197409,40.146332 
	C27.372782,38.803856 27.114784,37.326450 27.750280,35.248493 
	C33.919933,34.676567 39.847061,34.514679 46.196510,34.214016 
	C47.175110,33.766541 47.770508,33.588814 48.873718,33.493717 
	C54.627743,32.603733 59.915031,31.642237 65.587173,33.897194 
	C78.030457,35.094498 90.058441,34.291336 102.542267,34.484215 
	C105.304657,35.369141 104.768509,37.421101 104.806419,39.154869 
	C104.922508,44.464348 104.937668,49.776031 105.114929,55.539101 
	C104.500626,62.680706 104.901711,69.383858 105.118011,76.536690 
	C105.073235,80.366364 104.904968,83.742630 104.625595,87.566238 
	C103.944794,88.986137 103.069160,89.407425 101.613800,89.366745 
	C99.746544,88.869171 99.142944,87.035446 97.179764,86.705826 
	C95.832848,86.086815 94.794632,85.428909 93.446671,86.673004 
	C93.331596,88.987106 95.444916,89.222122 96.252243,90.906746 
	C97.511658,93.016449 98.364891,95.138161 101.388779,95.101494 
	C102.763763,95.083977 103.535606,95.555061 104.328125,96.666458 
	C104.640976,97.141281 104.758087,97.312195 105.058823,97.733719 
	C104.494011,104.341278 104.921265,110.713692 105.114868,117.534424 
z"/>
<path fill="#15151A" opacity="1.000000" stroke="none" 
	d="
M27.543985,34.817890 
	C28.321392,36.093643 28.649977,37.348827 29.076250,38.980968 
	C32.754665,43.843300 30.566401,49.075165 31.050434,54.446560 
	C30.853394,58.652252 31.235674,62.380718 30.823200,66.589355 
	C30.085899,73.143051 31.128738,79.282204 29.691769,85.710220 
	C28.565819,86.757423 27.648476,86.855049 26.245998,86.247452 
	C25.717714,81.978401 25.608070,77.956894 25.491947,73.473450 
	C25.515781,64.318237 25.546101,55.624939 25.526106,46.465691 
	C26.380060,42.318287 24.095615,38.175888 27.543985,34.817890 
z"/>
<path fill="#000000" opacity="1.000000" stroke="none" 
	d="
M46.325867,33.178169 
	C49.490562,28.837122 45.709621,25.524456 44.276211,22.418612 
	C43.379322,20.475271 40.170216,18.773914 37.063862,20.654449 
	C38.214691,24.181307 45.329609,21.745005 43.728165,27.283630 
	C43.052269,29.621229 40.305901,30.037411 37.868355,30.013981 
	C35.696743,29.993103 33.809418,29.774529 34.196629,26.221514 
	C36.269989,27.988220 38.434734,28.449183 40.707314,27.706976 
	C41.226128,25.759869 39.483494,25.722290 38.677361,25.400789 
	C36.226231,24.423235 32.772263,23.769646 34.567867,20.323505 
	C36.043930,17.490625 40.173859,16.786800 42.439129,18.484455 
	C45.124268,20.496767 49.263500,21.832310 49.203293,26.511652 
	C51.057930,24.450912 50.297070,20.153727 54.912518,22.073856 
	C53.853355,26.764917 54.719479,31.771963 49.277878,33.903896 
	C48.097214,33.940861 47.348927,33.749722 46.325867,33.178169 
z"/>
<path fill="#000000" opacity="1.000000" stroke="none" 
	d="
M78.095306,9.595461 
	C77.171173,11.857005 79.631248,15.084341 76.551872,15.787516 
	C74.230217,16.317665 70.858986,17.311720 69.436172,13.153563 
	C68.949898,12.839429 68.786339,12.722526 68.394623,12.802795 
	C67.873863,14.356476 68.395668,16.336939 65.495499,15.972610 
	C65.078323,12.492944 65.003593,9.028439 65.031212,5.564751 
	C65.039459,4.529574 64.624016,3.035048 66.510971,3.084594 
	C68.303543,3.131662 67.943535,4.540329 67.982216,5.617663 
	C68.034462,7.072305 67.995193,8.530234 67.995193,10.172305 
	C70.099983,9.352390 70.596695,6.235120 73.724586,7.346251 
	C70.781975,9.960546 70.964081,12.368660 75.013176,14.932610 
	C75.013176,12.593692 75.015167,10.744628 75.012421,8.895570 
	C75.010788,7.798948 75.240479,6.963209 76.640793,7.061137 
	C78.105995,7.163601 77.936241,8.241112 78.095306,9.595461 
z"/>
<path fill="#000000" opacity="1.000000" stroke="none" 
	d="
M45.383652,10.139248 
	C44.910221,4.497426 49.089550,7.963148 51.531452,7.067966 
	C53.292789,8.621807 53.134830,10.476198 52.948769,12.228081 
	C52.813858,13.498261 53.751511,16.135900 51.821308,15.732150 
	C49.375721,15.220594 46.681099,17.415503 44.578445,15.001472 
	C42.824646,12.987956 45.156223,11.850363 45.383652,10.139248 
z"/>
<path fill="#000000" opacity="1.000000" stroke="none" 
	d="
M63.933090,15.520233 
	C63.463497,15.980870 63.040936,16.004496 62.308605,16.097382 
	C60.152184,14.779521 61.210354,12.797345 61.035236,11.095987 
	C60.891193,9.696485 60.504234,9.008370 58.985680,9.000255 
	C57.426449,8.991920 56.961582,9.747388 57.006371,11.129543 
	C57.033215,11.957908 57.007607,12.788489 56.988750,13.617692 
	C56.962128,14.788809 57.066093,16.092199 55.264061,15.900716 
	C53.821537,15.747434 54.122868,14.578202 54.007572,13.649824 
	C53.316505,8.085212 56.805824,5.072815 61.986462,7.151103 
	C65.852242,8.701918 63.284214,12.425257 63.933090,15.520233 
z"/>
<path fill="#000000" opacity="1.000000" stroke="none" 
	d="
M85.651794,6.909032 
	C89.351463,7.609826 91.719749,13.056534 89.625259,15.393103 
	C88.692398,16.433788 87.472992,16.311432 87.119240,14.745249 
	C86.868683,13.635961 86.987427,12.435969 86.997833,11.276974 
	C87.009361,9.991476 86.801086,9.071545 85.159821,8.997109 
	C83.252174,8.910593 82.928947,9.937696 83.002632,11.458448 
	C83.026657,11.954456 83.074249,12.466649 82.983627,12.947416 
	C82.770004,14.080730 83.666176,15.960714 81.456856,15.886635 
	C79.339691,15.815646 80.198975,13.992370 80.017570,12.839122 
	C79.915558,12.190595 79.980751,11.515765 79.902054,10.426250 
	C79.330589,4.774138 83.790802,8.552888 85.651794,6.909032 
z"/>
<path fill="#000000" opacity="1.000000" stroke="none" 
	d="
M30.479446,15.973089 
	C30.075914,13.966100 30.007824,11.974839 30.005087,9.983490 
	C29.995609,3.083818 30.348602,2.851709 37.752357,4.758887 
	C37.659363,5.041646 37.643257,5.396176 37.459061,5.594891 
	C36.278545,6.868426 33.204067,4.645048 33.156765,7.510866 
	C33.104370,10.685402 37.300659,7.447448 37.909470,10.557421 
	C37.884777,10.958519 37.432552,11.021393 37.216171,11.094160 
	C35.959389,12.065315 34.327770,12.089845 33.387321,13.730640 
	C33.104919,15.493708 32.380032,16.214146 30.479446,15.973089 
z"/>
<path fill="#000000" opacity="1.000000" stroke="none" 
	d="
M58.644287,20.910028 
	C60.254036,21.523458 62.290627,19.981199 63.081787,22.617245 
	C65.097458,29.115536 64.443848,31.220854 60.358509,32.045059 
	C56.022392,32.919857 53.931808,30.967384 54.263523,26.384769 
	C54.358612,25.071123 54.252544,23.740376 54.850388,22.181965 
	C55.063519,21.909239 54.991764,21.978670 54.955238,22.012707 
	C56.042049,21.693415 57.165386,21.340082 58.644287,20.910028 
z"/>
<path fill="#000000" opacity="1.000000" stroke="none" 
	d="
M38.902157,11.417099 
	C38.889397,9.348721 38.868420,7.690084 39.028267,6.049063 
	C39.139725,4.904826 38.356533,3.039825 40.546619,3.112298 
	C42.652145,3.181973 41.833012,5.001050 41.976028,6.155126 
	C42.097347,7.134124 42.019867,8.137757 42.098694,9.564896 
	C42.112377,10.658870 42.164169,11.349753 41.981239,11.971588 
	C41.581394,13.330796 43.162727,15.898784 40.437664,15.813401 
	C37.864826,15.732791 39.483036,13.191133 38.902157,11.417099 
z"/>
<path fill="#718CB0" opacity="1.000000" stroke="none" 
	d="
M33.472145,13.916729 
	C32.413765,11.202513 33.955975,10.754933 36.602493,11.098975 
	C36.414368,12.646399 35.251728,13.428473 33.472145,13.916729 
z"/>
<path fill="#000000" opacity="1.000000" stroke="none" 
	d="
M76.124306,4.920825 
	C74.921730,4.213617 74.827461,3.497615 75.913033,3.143707 
	C76.613464,2.915355 77.639877,2.797590 77.808075,3.945871 
	C77.941093,4.853988 77.130333,4.861268 76.124306,4.920825 
z"/>
<path fill="#6488B5" opacity="1.000000" stroke="none" 
	d="
M46.075623,33.088856 
	C46.768219,32.986763 47.517300,33.036530 48.634308,33.162285 
	C49.100273,33.380665 49.198311,33.523060 49.136925,33.869972 
	C48.449718,34.152859 47.921932,34.231220 47.006493,34.192413 
	C46.423496,33.816284 46.261250,33.538105 46.075623,33.088856 
z"/>
<path fill="#688AB5" opacity="1.000000" stroke="none" 
	d="
M49.427841,34.214230 
	C48.990257,33.888943 48.997738,33.703175 49.001091,33.377731 
	C51.673347,29.989607 52.617706,25.898172 54.724464,22.058912 
	C54.094357,25.612633 57.599621,25.924334 59.413589,27.518505 
	C58.021496,28.568867 56.651985,27.638832 55.135239,27.502411 
	C55.600227,30.590727 57.868595,30.151997 59.646133,29.883369 
	C60.931431,29.689127 62.819489,29.488157 62.920658,27.590891 
	C63.073521,24.724106 59.831886,25.130722 58.657757,23.460957 
	C60.052322,22.349571 61.425800,23.383699 62.988327,23.273783 
	C63.166519,23.000256 63.644043,22.981907 63.882801,22.972675 
	C67.821091,23.913065 66.178818,26.869883 66.237350,29.497107 
	C66.032539,31.046274 66.023109,32.212543 66.019104,33.727158 
	C60.655525,34.928459 55.264038,34.477924 49.427841,34.214230 
z"/>
<path fill="#000000" opacity="1.000000" stroke="none" 
	d="
M81.904709,23.431911 
	C82.350380,18.764061 85.947670,22.910952 87.654495,20.909914 
	C89.071800,21.178179 90.155609,21.842373 91.217659,21.809231 
	C96.827881,21.634165 97.927055,22.775957 97.001900,28.037889 
	C96.818092,29.083313 96.761208,30.024164 95.346115,29.918268 
	C94.250618,29.836287 94.062523,29.082449 94.029549,28.216106 
	C93.998016,27.387894 94.064026,26.552853 93.986565,25.730289 
	C93.887833,24.682089 94.414703,23.222334 92.619751,23.086599 
	C90.760933,22.946035 91.087509,24.389210 91.010429,25.485977 
	C90.964020,26.146311 91.032181,26.814903 90.982178,27.474731 
	C90.899811,28.561386 91.258476,30.017603 89.406021,29.907022 
	C87.606255,29.799583 88.116898,28.333515 88.020645,27.282890 
	C87.945259,26.459976 88.009590,25.625246 87.978874,24.796988 
	C87.946960,23.936893 87.786140,23.167105 86.683617,23.076708 
	C85.295845,22.962919 85.029060,23.822363 85.014404,24.924814 
	C85.003380,25.753880 85.042213,26.586239 84.981010,27.411356 
	C84.901329,28.485571 85.299835,29.950363 83.470581,29.912491 
	C81.666176,29.875132 82.086937,28.413992 82.020805,27.347155 
	C81.949089,26.190197 81.984871,25.026573 81.904709,23.431911 
z"/>
<path fill="#000000" opacity="1.000000" stroke="none" 
	d="
M92.064484,18.342587 
	C92.145821,16.527327 92.468163,15.351114 91.533005,13.647582 
	C90.055672,10.956382 90.810135,7.609175 94.236580,7.290075 
	C96.361496,7.092183 100.968597,4.251906 101.096649,10.573524 
	C100.711266,19.170994 100.334846,19.497208 92.064484,18.342587 
z"/>
<path fill="#000000" opacity="1.000000" stroke="none" 
	d="
M70.398239,23.566242 
	C73.618866,21.089792 76.315369,19.421753 79.552017,22.878593 
	C80.619690,28.269619 76.125000,24.816362 74.525131,26.503971 
	C75.563301,29.134581 77.800903,27.640825 79.616203,27.653706 
	C77.594109,30.807066 75.499596,30.944075 70.969940,27.868040 
	C69.379913,26.477287 69.428734,25.289984 70.398239,23.566242 
z"/>
<path fill="#000000" opacity="1.000000" stroke="none" 
	d="
M66.445557,29.927668 
	C64.284088,27.973099 65.423431,25.496975 64.442673,23.168869 
	C63.781734,21.890451 64.510422,21.127787 64.880585,20.247356 
	C66.115891,17.309183 66.491913,17.102512 67.889244,19.844248 
	C68.692909,21.421133 71.048325,20.223572 70.948425,22.684578 
	C70.936157,23.076683 71.002556,23.003153 71.035965,22.966576 
	C69.477921,24.332977 68.841156,25.836136 70.824883,27.829269 
	C71.069260,28.069897 71.003090,27.996849 70.970314,27.960049 
	C70.986801,31.420538 68.298729,29.464191 66.445557,29.927668 
z"/>
<path fill="#15141A" opacity="1.000000" stroke="none" 
	d="
M25.713657,86.456383 
	C26.544287,86.012680 27.261219,86.025444 28.769751,86.233871 
	C32.859016,90.572449 30.796398,95.526863 31.541862,100.504959 
	C30.344732,104.883270 30.224588,108.886292 30.858105,112.857773 
	C31.732056,118.336517 34.276997,120.594307 39.793125,121.074196 
	C46.682556,121.673561 53.593315,121.445953 60.496586,121.517578 
	C62.292007,121.536209 64.141609,121.162010 66.223923,122.311493 
	C67.329094,123.814873 67.331589,125.011536 66.287048,126.577454 
	C65.974236,126.942146 66.076324,127.144348 66.082649,127.257431 
	C57.676689,127.304306 49.264400,127.238098 40.398392,127.269135 
	C35.927948,127.278008 31.911234,127.189636 27.437607,127.012970 
	C26.714985,126.694389 26.461327,126.451561 25.994282,126.060837 
	C24.917904,118.936523 25.693825,111.921318 25.486258,104.452621 
	C25.546896,98.293541 25.573427,92.603195 25.713657,86.456383 
z"/>
<path fill="#15151A" opacity="1.000000" stroke="none" 
	d="
M25.815250,126.233658 
	C26.042843,126.141914 26.318665,126.356461 26.787592,126.747849 
	C26.608292,126.796440 26.235888,126.668198 25.815250,126.233658 
z"/>
<path fill="#251E20" opacity="1.000000" stroke="none" 
	d="
M101.039856,88.210052 
	C102.307320,87.978828 103.110176,87.983086 104.213760,88.000458 
	C105.206314,90.692253 104.908569,93.403770 104.653519,96.539963 
	C103.470688,96.922531 102.417519,96.874702 100.971939,96.775795 
	C98.201805,93.966202 99.088715,91.206017 101.039856,88.210052 
z"/>
<path fill="#15151A" opacity="1.000000" stroke="none" 
	d="
M66.436905,127.033562 
	C65.981819,126.015350 65.989403,125.088554 65.998116,123.814224 
	C66.260818,122.629745 66.807587,121.840340 67.635277,121.816925 
	C75.120346,121.605202 82.645401,120.470123 90.344116,122.998291 
	C90.750656,123.692947 90.860626,123.999008 90.982925,124.791962 
	C90.898422,125.588501 90.801590,125.898163 90.441856,126.617355 
	C82.419167,127.059593 74.659370,127.092285 66.436905,127.033562 
z"/>
<path fill="#15151A" opacity="1.000000" stroke="none" 
	d="
M99.670547,125.747223 
	C101.200455,125.974365 102.449554,125.979973 104.072052,125.982430 
	C100.423698,128.614746 95.971924,126.588699 91.288818,127.088287 
	C90.718460,126.826149 90.618103,126.625420 90.513550,126.086357 
	C90.525909,125.521492 90.542473,125.294945 90.675789,124.745140 
	C90.955460,124.258926 91.118378,124.095978 91.599213,123.793259 
	C92.148529,123.631691 92.379929,123.609901 92.960251,123.610580 
	C93.769325,123.723747 94.225288,123.832047 95.020706,124.044830 
	C96.770111,124.411674 98.131287,124.820335 99.670547,125.747223 
z"/>
<path fill="#362E2D" opacity="1.000000" stroke="none" 
	d="
M90.629059,125.796402 
	C90.766029,126.220581 90.802139,126.623184 90.810478,126.825035 
	C90.818817,127.026886 90.496788,127.148567 90.337875,127.087738 
	C90.178955,127.026901 90.194389,126.624413 90.209770,126.423615 
	C90.314133,125.939278 90.403107,125.655754 90.629059,125.796402 
z"/>
<path fill="#6B8AB3" opacity="1.000000" stroke="none" 
	d="
M68.403297,12.990957 
	C68.148392,12.432990 68.213287,11.987322 69.017792,12.719707 
	C69.113449,12.956332 68.640129,12.981946 68.403297,12.990957 
z"/>
<path fill="#F92E2D" opacity="1.000000" stroke="none" 
	d="
M73.197311,46.841675 
	C75.247841,48.257420 77.161911,49.351757 79.279716,50.684929 
	C80.709740,51.422127 81.197868,52.513805 81.704689,54.071365 
	C82.517990,58.447250 82.444984,62.171711 78.803001,65.370575 
	C77.093918,67.025040 75.849586,68.935654 73.524742,68.136879 
	C71.416298,67.412460 70.192284,65.824577 71.247658,63.518345 
	C71.992241,61.891243 73.195625,60.483067 73.833275,58.442177 
	C73.314354,56.815540 73.331688,55.256977 71.495514,54.462288 
	C70.982376,54.250584 70.780243,54.147396 70.299759,53.839783 
	C66.519180,50.733562 61.592548,51.202339 57.641872,48.479698 
	C54.161304,47.308380 50.749020,47.895668 47.595261,46.757389 
	C44.697735,45.711594 44.298428,48.776089 42.470356,50.160938 
	C40.220009,51.671345 39.127445,53.483509 39.029327,56.205566 
	C39.099480,57.673508 38.787075,58.816738 39.243778,60.266983 
	C40.127247,62.594543 39.881577,64.696281 40.073437,67.088715 
	C40.474243,68.020180 40.820881,68.603279 41.203354,69.538345 
	C41.424789,71.306511 40.139885,72.843880 41.767548,74.480972 
	C42.634220,75.671494 42.796574,76.838326 43.585350,78.089806 
	C43.669613,82.596741 47.199059,84.839111 49.209503,88.278534 
	C50.369293,89.577774 51.697212,90.081779 52.947094,91.245941 
	C57.634884,95.984940 62.320076,100.259552 66.270950,105.543030 
	C67.032585,105.606308 67.471649,105.627846 68.247307,105.700012 
	C68.795013,105.839310 69.006119,105.928375 69.488312,106.231331 
	C70.747437,110.323784 70.884415,114.783691 76.422821,115.752167 
	C76.920288,115.707062 77.116875,115.669235 77.609940,115.600464 
	C78.296562,115.562279 78.684204,115.588112 79.354492,115.654732 
	C80.212486,115.645020 80.785126,115.659012 81.643677,115.568665 
	C82.904938,115.359497 83.821060,114.977539 85.074310,114.634216 
	C85.981522,114.249405 86.587990,113.970078 87.557831,113.652435 
	C88.639297,113.521362 89.371185,113.521851 90.481552,113.601837 
	C91.105019,113.722908 91.350410,113.799286 91.912643,114.102776 
	C92.577896,114.741745 92.790001,115.215111 92.848358,116.147224 
	C92.714554,117.073303 92.616493,117.603210 92.415451,118.532158 
	C91.893623,120.010262 91.299896,120.945633 89.880615,121.710846 
	C84.469215,121.975960 79.447159,122.296631 74.038559,121.610596 
	C69.882370,121.585464 67.812645,116.979805 63.326469,117.962532 
	C61.116512,118.098526 59.884094,117.104904 58.595367,115.497612 
	C59.265633,105.705193 51.278770,102.588249 45.813980,97.681313 
	C45.217072,97.145340 44.274845,97.063499 43.368679,96.274689 
	C43.013077,95.809654 42.902992,95.602104 42.701462,95.057953 
	C42.693638,90.911819 39.696945,88.860634 37.495308,85.959679 
	C34.487423,82.578171 33.310913,78.880379 33.101952,74.760658 
	C33.013611,73.019043 32.892849,71.119110 30.621023,69.976372 
	C30.021713,69.026291 29.844944,68.296631 29.720371,67.195419 
	C32.021191,63.098560 30.550854,58.984501 31.001080,54.666676 
	C30.881571,50.996239 31.343452,47.776215 31.899879,44.123894 
	C32.463627,43.211048 32.880135,42.751629 33.713295,42.051308 
	C41.278824,38.508259 48.837452,40.322502 56.241764,40.194824 
	C58.213470,40.160824 60.190983,40.379791 62.605778,40.048691 
	C63.619736,40.063740 64.150780,40.222084 64.975540,40.705070 
	C67.392418,43.458851 71.773514,42.860966 73.197311,46.841675 
z"/>
<path fill="#968175" opacity="1.000000" stroke="none" 
	d="
M88.225632,114.665375 
	C87.549530,115.184578 87.107704,115.468643 86.465401,115.925293 
	C86.055321,116.231422 85.845711,116.364967 85.267166,116.549759 
	C80.601311,113.479118 79.146156,108.389442 76.412910,104.197105 
	C73.902962,100.347267 71.975288,96.122711 68.842224,92.241982 
	C67.873108,91.341721 67.271004,90.612991 66.807442,89.357605 
	C66.187531,87.418922 64.476547,86.387512 64.529533,84.150543 
	C64.534225,83.270187 64.577309,82.766655 64.796661,81.904091 
	C66.798424,79.009735 69.296967,77.902214 72.750389,78.408997 
	C73.408104,78.687431 73.736443,78.748734 74.540222,78.968147 
	C75.193008,79.263130 75.370361,79.399994 75.805687,79.752197 
	C77.252357,80.790451 77.219864,82.175438 77.797180,83.624725 
	C78.161186,84.174889 78.392532,84.422211 78.854683,84.802322 
	C83.167816,91.096260 86.824677,97.489601 90.184784,104.447266 
	C89.634476,106.682854 91.145195,108.416656 90.530746,110.619499 
	C90.167191,111.834526 89.341850,112.389633 88.961670,113.582733 
	C88.724510,114.075500 88.592216,114.252876 88.225632,114.665375 
z"/>
<path fill="#7A655D" opacity="1.000000" stroke="none" 
	d="
M89.694016,117.261314 
	C89.971024,116.699638 90.163437,116.480263 90.615074,116.230728 
	C91.602234,116.575806 92.254944,116.137352 93.284256,115.706024 
	C96.212021,114.660973 97.174995,116.793152 98.776901,118.444176 
	C99.618149,119.807442 99.909355,120.993187 100.061523,122.551636 
	C99.701866,123.086609 99.405891,123.206268 98.862762,123.356659 
	C98.759727,124.010300 98.563240,124.422340 97.685196,124.792923 
	C96.567459,124.988167 95.810478,124.993027 94.677177,124.957993 
	C93.566704,124.842522 92.861328,124.495338 91.729958,124.594864 
	C91.365669,124.509453 91.111488,124.100548 90.873665,124.063232 
	C90.623131,124.407356 90.610390,124.788795 90.576019,124.598167 
	C82.728271,122.114784 74.795433,123.813591 66.463226,123.397110 
	C55.682854,123.309875 45.365917,123.019463 35.050331,123.061226 
	C30.853271,123.078209 28.896214,121.656967 29.050598,117.295982 
	C29.232948,112.145073 29.093014,106.982750 29.224266,101.367020 
	C32.173904,99.927917 32.829552,101.828568 33.231236,103.904259 
	C33.640991,106.021622 33.963493,108.148750 34.750069,110.177658 
	C36.039978,113.504852 38.292988,115.696175 41.831528,116.532753 
	C46.039696,117.527649 50.316563,118.144241 54.609295,118.415878 
	C60.672123,118.799538 66.873367,117.128624 73.170738,119.827888 
	C78.429314,121.403824 83.357689,121.376068 88.652580,120.252304 
	C89.741158,119.321495 89.401367,118.382004 89.694016,117.261314 
z"/>
<path fill="#9D7F73" opacity="1.000000" stroke="none" 
	d="
M75.606079,56.681381 
	C76.238228,59.255707 75.083527,61.019829 73.694702,62.699154 
	C72.962120,63.584969 72.004974,64.550591 72.990578,65.705139 
	C74.217949,67.142906 75.326546,66.021507 76.643448,65.114136 
	C79.041641,65.107971 81.120575,64.568741 83.229523,64.370560 
	C84.747864,64.227875 86.189606,63.666702 86.550529,61.959938 
	C86.903740,60.289661 85.869278,59.174786 84.607964,58.303349 
	C83.276848,57.383682 81.632111,56.910500 80.421143,55.242104 
	C80.035088,53.896587 79.876328,52.807629 79.600510,51.321213 
	C84.831085,52.758430 90.178719,54.593109 95.814423,56.638355 
	C100.855331,62.028343 100.766678,67.752701 95.431244,71.078278 
	C88.983322,71.354591 82.988632,71.479416 76.545479,71.716133 
	C75.608276,71.963745 75.122208,72.108398 74.258652,72.284027 
	C72.779175,72.260483 71.989716,71.650902 71.010498,70.623444 
	C69.556236,69.055397 67.688728,68.509201 66.734688,66.469833 
	C66.568268,65.588181 66.538010,65.074005 66.554504,64.167046 
	C67.465408,59.816799 70.080864,57.481663 74.161163,56.159370 
	C74.801468,56.254562 75.047226,56.348045 75.606079,56.681381 
z"/>
<path fill="#976F62" opacity="1.000000" stroke="none" 
	d="
M64.148567,41.747578 
	C61.018139,43.069023 58.127228,42.623688 55.158100,42.395466 
	C48.540478,41.886803 41.821117,40.391636 35.075760,43.276077 
	C34.069191,42.528015 33.390701,41.918674 33.400864,40.566322 
	C33.712440,39.836452 34.050125,39.550747 34.737007,39.154491 
	C47.516945,37.953571 60.057560,38.247742 73.015579,38.821903 
	C74.331741,39.607895 74.358467,40.582867 74.206429,41.829948 
	C73.893562,43.502258 73.719002,44.916470 73.439102,46.746880 
	C70.375702,46.308533 67.461533,45.353088 64.937798,43.255123 
	C65.488640,42.269829 65.031822,41.905144 64.148567,41.747578 
z"/>
<path fill="#755F56" opacity="1.000000" stroke="none" 
	d="
M82.844124,38.422249 
	C87.530991,38.532074 91.876884,38.631077 96.626831,38.817825 
	C100.039551,41.218716 99.839348,44.172882 98.355164,47.634743 
	C92.229401,46.998924 87.077843,44.281971 81.382111,42.042774 
	C80.472336,41.375347 80.182068,40.749203 80.617767,39.383846 
	C81.002914,38.794960 81.410721,38.615059 81.616142,38.528625 
	C82.048767,38.431934 82.275963,38.421680 82.844124,38.422249 
z"/>
<path fill="#DF482E" opacity="1.000000" stroke="none" 
	d="
M71.626694,68.761505 
	C72.643761,69.526527 73.224785,70.206146 74.018936,71.146133 
	C75.597572,73.351555 74.708603,75.374268 74.168533,77.725693 
	C73.899376,78.075699 73.455559,78.300041 73.267654,78.463081 
	C71.130280,80.030762 69.137840,81.330490 66.251526,81.330078 
	C63.289768,82.443085 61.620396,81.446205 60.655209,78.517258 
	C63.451164,74.138039 66.327965,70.296577 71.626694,68.761505 
z"/>
<path fill="#BDA385" opacity="1.000000" stroke="none" 
	d="
M98.338188,120.280983 
	C97.150017,118.250137 95.812851,117.134193 93.400871,116.995956 
	C92.480347,116.646538 92.356537,116.067345 92.055817,115.254471 
	C91.855705,115.032982 91.582893,114.904526 91.433182,114.886688 
	C91.090157,114.776314 90.896843,114.683769 90.468369,114.372025 
	C89.606499,113.287018 88.946732,112.436996 88.869659,110.985077 
	C88.745697,108.773544 87.147217,106.665306 89.963730,104.983154 
	C90.626457,104.910324 91.000862,105.019821 91.631378,105.272369 
	C92.464722,105.699409 92.978912,106.065598 93.561081,106.835358 
	C96.798447,110.796883 98.801750,115.128876 101.112885,119.670258 
	C100.422104,120.596977 99.620895,120.787697 98.338188,120.280983 
z"/>
<path fill="#826D63" opacity="1.000000" stroke="none" 
	d="
M95.007652,92.457718 
	C91.802307,90.701294 89.228806,88.937607 88.202103,85.297729 
	C88.128212,84.486092 88.272446,84.049774 88.789726,83.410034 
	C91.719673,83.141701 94.392067,83.113129 97.504288,83.159882 
	C101.510963,87.596832 100.405777,91.747200 95.007652,92.457718 
z"/>
<path fill="#7A655D" opacity="1.000000" stroke="none" 
	d="
M34.571907,38.819466 
	C34.788467,39.195557 34.593601,39.473152 34.221863,39.934425 
	C33.563110,41.199181 34.098633,42.409294 33.778000,43.796291 
	C33.651196,47.413582 33.363644,50.725006 33.016197,54.449776 
	C32.178856,55.799164 31.219074,56.029102 29.790020,55.336876 
	C29.412825,50.126904 29.335567,45.183361 29.216125,39.798870 
	C30.836121,39.145607 32.498299,38.933289 34.571907,38.819466 
z"/>
<path fill="#735E57" opacity="1.000000" stroke="none" 
	d="
M95.320343,71.373604 
	C98.394768,66.968796 98.969444,62.436295 96.191750,57.220474 
	C100.609360,58.264812 103.552505,66.785294 100.721992,70.481804 
	C99.428467,72.171089 97.467545,71.727951 95.320343,71.373604 
z"/>
<path fill="#6B5953" opacity="1.000000" stroke="none" 
	d="
M94.666145,92.618431 
	C98.740273,90.762878 99.482536,87.791100 98.038544,83.581551 
	C101.169060,82.741066 101.105911,85.108055 101.441666,87.578575 
	C101.248009,90.608528 100.991554,93.242477 100.657310,96.300568 
	C97.516678,97.205688 95.745552,95.688454 94.666145,92.618431 
z"/>
<path fill="#5E4E49" opacity="1.000000" stroke="none" 
	d="
M98.288567,48.129906 
	C98.087242,45.172356 98.007324,42.404305 97.108955,39.307404 
	C99.720291,38.528542 101.288162,39.827065 100.964226,42.401505 
	C100.704750,44.463562 103.171684,47.928089 98.288567,48.129906 
z"/>
<path fill="#5A4840" opacity="1.000000" stroke="none" 
	d="
M80.495544,38.656673 
	C80.985832,39.551933 81.012283,40.324127 81.053375,41.481552 
	C79.348015,41.626736 77.628006,41.386684 75.536453,41.199730 
	C74.055740,39.797001 74.496307,38.839241 76.198563,38.563599 
	C77.452347,38.360573 78.752327,38.486916 80.495544,38.656673 
z"/>
<path fill="#775E55" opacity="1.000000" stroke="none" 
	d="
M80.973648,38.769859 
	C78.936096,38.829697 76.750191,38.368347 75.284363,40.899750 
	C75.011208,41.538425 74.792130,41.759113 74.287895,42.001472 
	C73.818665,41.182907 73.569199,40.277767 73.375885,39.153854 
	C75.617867,38.205021 77.848465,38.457077 80.539230,38.713585 
	C81.002914,38.794960 80.987915,38.759979 80.973648,38.769859 
z"/>
<path fill="#251E20" opacity="1.000000" stroke="none" 
	d="
M74.134705,77.821167 
	C74.021515,76.128021 74.143661,74.180336 74.248932,71.819580 
	C74.656845,71.462242 75.081635,71.517982 75.801712,71.700874 
	C75.990395,73.882050 75.792915,75.908722 74.134705,77.821167 
z"/>
<path fill="#241D1C" opacity="1.000000" stroke="none" 
	d="
M97.160927,123.933678 
	C97.624702,123.478493 97.889984,123.365311 98.423813,123.411346 
	C98.940552,123.793564 99.241470,124.140320 99.778290,124.737595 
	C100.014183,124.988098 99.982628,125.478775 99.966988,125.723770 
	C98.186531,125.893982 96.421715,125.819199 94.490852,125.158165 
	C95.183258,124.412323 96.111588,124.682755 97.160927,123.933678 
z"/>
<path fill="#988166" opacity="1.000000" stroke="none" 
	d="
M98.079849,120.355515 
	C98.750336,120.095222 99.553612,120.092484 100.757690,120.063522 
	C101.742508,121.054596 101.716385,121.973846 100.349136,122.822693 
	C99.386765,122.142708 98.799706,121.377892 98.079849,120.355515 
z"/>
<path fill="#968175" opacity="1.000000" stroke="none" 
	d="
M93.735870,106.799889 
	C93.174942,106.708214 92.616890,106.312981 91.973167,105.666580 
	C92.870537,105.148972 93.369789,105.711082 93.735870,106.799889 
z"/>
<path fill="#6B5953" opacity="1.000000" stroke="none" 
	d="
M88.797676,83.150558 
	C88.846596,83.637177 88.645912,84.104088 88.281845,84.767853 
	C87.367073,84.143860 87.463715,83.521660 88.797676,83.150558 
z"/>
<path fill="#88766F" opacity="1.000000" stroke="none" 
	d="
M75.983543,79.729256 
	C75.789558,79.836800 75.542473,79.666794 75.169022,79.291893 
	C75.311577,79.247833 75.607506,79.369400 75.983543,79.729256 
z"/>
<path fill="#15151A" opacity="1.000000" stroke="none" 
	d="
M100.005951,124.992691 
	C100.011909,124.985390 100.070992,124.953545 100.042587,124.970825 
	C100.014183,124.988098 100.000000,125.000000 100.005951,124.992691 
z"/>
<path fill="#88766F" opacity="1.000000" stroke="none" 
	d="
M78.968513,84.702682 
	C78.790428,84.747711 78.535179,84.523087 78.124794,84.094391 
	C78.276886,84.071213 78.584114,84.252113 78.968513,84.702682 
z"/>
<path fill="#443733" opacity="1.000000" stroke="none" 
	d="
M82.843987,38.401756 
	C82.839005,38.487556 82.492920,38.542038 81.984192,38.519356 
	C82.048660,38.418278 82.275764,38.394363 82.843987,38.401756 
z"/>
<path fill="#937268" opacity="1.000000" stroke="none" 
	d="
M29.413054,55.520538 
	C30.414776,55.025185 31.339470,54.979923 32.610229,54.898888 
	C33.206295,58.273640 33.242035,61.717728 33.769547,65.084770 
	C34.249424,68.147781 32.438618,67.238060 30.598030,67.112778 
	C30.074791,67.278702 29.886326,67.441193 29.528839,67.270882 
	C29.351885,63.282265 29.343954,59.626446 29.413054,55.520538 
z"/>
<path fill="#7A655D" opacity="1.000000" stroke="none" 
	d="
M29.254736,67.400269 
	C29.359816,66.938080 29.815481,67.008430 30.039368,67.062317 
	C30.435789,67.484253 30.608322,67.852303 30.877388,68.403030 
	C33.772663,73.132721 33.437660,78.129303 33.005108,83.120186 
	C32.867561,84.707222 32.044117,85.892960 29.876930,86.127090 
	C29.374697,85.953201 29.041676,86.050545 28.868244,86.055145 
	C28.846426,79.993988 28.998041,73.928215 29.254736,67.400269 
z"/>
<path fill="#6D8BB2" opacity="1.000000" stroke="none" 
	d="
M48.879616,13.920458 
	C47.871391,13.862770 47.059998,13.855261 47.190239,12.949086 
	C47.355103,11.802074 48.378731,11.914893 49.083611,12.141833 
	C50.174923,12.493185 50.075726,13.208400 48.879616,13.920458 
z"/>
<path fill="#678AB5" opacity="1.000000" stroke="none" 
	d="
M97.688271,9.527220 
	C97.602486,11.276700 99.159744,13.364310 96.602303,13.909340 
	C95.323532,14.181867 94.268318,13.283263 94.128464,12.044298 
	C93.857407,9.642932 95.209274,8.796845 97.688271,9.527220 
z"/>
<path fill="#6689B6" opacity="1.000000" stroke="none" 
	d="
M97.397461,16.785931 
	C96.095695,16.932199 95.116211,16.932199 94.136726,16.932199 
	C95.323265,16.582230 96.436768,14.815655 97.397461,16.785931 
z"/>
<path fill="#6889B5" opacity="1.000000" stroke="none" 
	d="
M71.040680,27.642200 
	C69.806068,27.823223 67.951317,28.561758 68.007942,26.154360 
	C68.045174,24.570963 67.653023,22.746191 70.655960,22.961243 
	C71.050285,24.358170 71.031197,25.786337 71.040680,27.642200 
z"/>
<path fill="#9D8377" opacity="1.000000" stroke="none" 
	d="
M29.318243,86.418976 
	C32.288853,82.663239 30.473082,78.684952 30.920944,75.039818 
	C31.141052,73.248360 30.972879,71.409195 30.977169,69.088669 
	C33.833942,69.500153 35.199543,71.512421 35.456158,74.456551 
	C35.762012,77.965485 36.979763,81.187981 38.930386,84.516289 
	C39.889744,87.142830 39.307652,89.506126 39.388641,92.192009 
	C39.433491,93.253059 39.490990,93.959076 39.647804,95.014160 
	C39.817112,96.022530 40.011719,96.662735 40.125324,97.314384 
	C42.247849,109.489418 43.073059,110.308182 55.356533,112.098129 
	C57.645409,114.812988 60.080673,116.214951 63.751564,115.248459 
	C67.864319,114.885796 69.572403,118.852486 73.248497,119.735001 
	C63.349438,120.588943 53.161266,121.783142 42.960606,119.572945 
	C35.310257,117.915337 32.319492,114.973854 31.101357,107.096733 
	C30.803034,105.167595 31.295008,103.067322 29.629173,101.137222 
	C29.324419,96.234024 29.293104,91.559380 29.318243,86.418976 
z"/>
<path fill="#241D1C" opacity="1.000000" stroke="none" 
	d="
M90.458374,124.573227 
	C90.554367,124.026100 90.593460,124.053780 90.614655,124.039848 
	C90.667679,124.390312 90.699516,124.754700 90.748688,125.669838 
	C90.766029,126.220581 90.493355,126.209038 90.359253,126.215927 
	C90.270897,125.855324 90.316643,125.487831 90.458374,124.573227 
z"/>
<path fill="#241D1C" opacity="1.000000" stroke="none" 
	d="
M91.846939,124.666077 
	C91.970375,124.162476 92.575081,123.815498 93.542221,123.506287 
	C94.185913,123.770966 94.467194,123.997849 94.371994,124.614792 
	C93.995552,125.004822 93.886345,125.106194 93.596764,125.093147 
	C92.980858,124.994301 92.654541,124.908501 91.846939,124.666077 
z"/>
<path fill="#362E2D" opacity="1.000000" stroke="none" 
	d="
M93.377426,125.180229 
	C93.307182,125.080101 93.545876,125.138870 93.661530,125.173233 
	C93.777184,125.207603 93.791382,125.423477 93.784256,125.526062 
	C93.777122,125.628654 93.447678,125.280357 93.377426,125.180229 
z"/>
<path fill="#1A171B" opacity="1.000000" stroke="none" 
	d="
M70.824448,89.604599 
	C75.919609,98.258423 80.745750,106.725067 85.727859,115.538925 
	C85.463005,117.452431 84.462921,118.337181 82.399979,118.464638 
	C81.224480,118.355385 80.481186,118.261436 79.362946,118.196899 
	C78.769043,118.275719 78.550079,118.325127 78.029198,118.225533 
	C77.727272,118.076523 77.537689,117.946510 77.425461,117.921707 
	C72.451218,115.836372 70.702469,111.508606 69.029152,106.694321 
	C67.250717,105.364197 66.588661,103.410545 64.549484,102.361084 
	C61.603199,95.547264 57.148422,90.489082 50.809505,86.639816 
	C49.832500,86.254799 49.193249,85.960907 48.208092,85.583694 
	C45.670422,83.379768 43.202911,81.591599 40.917416,79.044022 
	C40.444828,77.877792 40.227192,76.991943 40.006081,75.826515 
	C40.206108,71.566437 41.781551,69.806648 46.122986,70.972557 
	C48.503071,71.611748 51.047367,71.059357 52.860306,68.781540 
	C53.957794,67.402641 55.370617,66.259331 57.679897,67.555405 
	C59.217510,70.097916 58.208805,72.563675 58.638161,75.282898 
	C58.383263,78.162231 59.900879,79.681664 61.748825,80.826881 
	C63.093632,81.660286 64.586151,82.236053 65.720596,83.912399 
	C66.983810,85.244392 68.045578,86.273872 69.201248,87.611908 
	C69.644699,88.478836 70.051529,88.988991 70.824448,89.604599 
z"/>
<path fill="#18161B" opacity="1.000000" stroke="none" 
	d="
M74.892883,56.541069 
	C72.769310,59.105648 70.853096,61.398869 68.729507,63.939812 
	C64.999733,65.129028 61.958160,67.971848 57.611668,66.602142 
	C56.265182,65.042053 56.393196,63.616077 56.846531,61.922993 
	C56.863918,61.690903 56.798512,61.268753 56.680790,61.070324 
	C52.748604,56.484463 47.610619,57.594025 42.746696,57.525318 
	C40.893356,57.499138 38.784431,58.456322 37.303032,55.926125 
	C37.285362,52.769138 36.394939,49.634361 40.150528,47.856247 
	C45.582630,45.783085 50.772255,47.270687 56.281883,47.071499 
	C57.478615,47.310600 58.358006,47.499760 58.866306,48.108879 
	C62.267860,52.185104 67.003082,51.302757 71.697006,51.844719 
	C71.964600,52.104633 71.957657,52.040333 71.929276,52.055832 
	C73.173164,53.313953 74.971390,54.155766 74.892883,56.541069 
z"/>
<path fill="#B19485" opacity="1.000000" stroke="none" 
	d="
M55.785412,114.516266 
	C54.278996,114.221016 53.118580,114.121513 51.956367,114.052094 
	C42.721191,113.500526 38.415611,109.156036 38.006485,99.943237 
	C37.947468,98.614265 37.968353,97.281738 37.947716,95.506790 
	C39.479164,93.199455 41.336945,93.413773 43.693687,94.515587 
	C52.984234,97.556900 58.262959,104.579552 63.073563,111.738655 
	C64.928650,114.499374 61.120975,113.395538 59.524269,114.093216 
	C58.260937,114.910294 57.234749,115.019142 55.785412,114.516266 
z"/>
<path fill="#A07D72" opacity="1.000000" stroke="none" 
	d="
M37.117283,56.020035 
	C42.065979,55.373329 46.982807,56.070255 51.840122,55.164074 
	C55.739929,54.436523 56.344231,59.108219 59.702599,59.872391 
	C60.133064,60.304836 60.286839,60.535732 60.479008,61.180977 
	C59.716843,62.511410 58.916275,63.427490 58.034805,64.641907 
	C57.563259,65.520950 57.769020,66.292564 57.014015,66.970413 
	C55.352596,68.557915 53.909126,69.953941 52.704895,71.532486 
	C50.850777,73.962929 48.842758,75.197975 45.999928,73.092865 
	C43.193512,71.014717 41.842472,72.930336 40.281845,75.301697 
	C38.819328,73.989822 38.815742,72.396736 40.009815,70.440094 
	C40.292240,69.022270 41.035961,68.422447 42.229828,67.787491 
	C43.682190,67.432343 44.854797,67.471619 45.915226,66.934479 
	C47.614895,66.073547 50.171925,65.616325 49.210636,62.957573 
	C48.386505,60.678169 46.106960,61.047276 44.086224,61.260265 
	C41.934399,61.487076 39.822025,63.526730 37.364277,61.217403 
	C37.106667,59.463345 37.080441,57.965252 37.117283,56.020035 
z"/>
<path fill="#A98B7C" opacity="1.000000" stroke="none" 
	d="
M50.717239,85.212540 
	C58.608883,87.357040 62.912106,93.023552 66.224731,100.135544 
	C66.578445,102.373352 68.232140,103.929413 67.755554,106.428101 
	C67.435654,107.618210 67.603401,108.547142 66.375076,109.054398 
	C61.562462,103.351540 56.654354,98.196091 50.900162,93.392677 
	C50.391594,90.586655 48.664433,88.138664 50.717239,85.212540 
z"/>
<path fill="#AF877B" opacity="1.000000" stroke="none" 
	d="
M37.105549,61.352825 
	C39.157974,60.232315 41.183975,59.505726 43.207943,58.773506 
	C46.696037,57.511612 49.721478,58.232246 52.288895,60.895386 
	C53.563152,62.217144 54.000366,63.725342 53.136375,65.430573 
	C51.531815,68.597473 48.599670,68.977821 45.510277,68.989555 
	C44.847385,68.992073 44.184399,68.969872 43.072399,68.942810 
	C41.169170,68.089142 39.864712,70.140518 38.384258,68.827538 
	C37.936840,66.254585 37.507523,63.999397 37.105549,61.352825 
z"/>
<path fill="#A98A7D" opacity="1.000000" stroke="none" 
	d="
M80.131432,55.387062 
	C84.898262,54.487034 88.214432,56.460171 90.199806,60.692101 
	C91.011963,62.423267 90.617004,64.076042 89.055122,65.092400 
	C85.312721,67.527664 81.401077,67.963219 77.167816,65.240089 
	C78.607620,62.130978 80.117302,59.228638 80.131432,55.387062 
z"/>
<path fill="#947369" opacity="1.000000" stroke="none" 
	d="
M71.845154,51.782104 
	C66.454216,54.553699 61.694313,53.641514 57.754066,48.568897 
	C57.655174,47.973759 57.583191,47.747494 57.662235,47.198677 
	C62.182453,49.218311 67.749931,47.923248 71.845154,51.782104 
z"/>
<path fill="#B38D7F" opacity="1.000000" stroke="none" 
	d="
M37.407677,93.417938 
	C36.911472,90.500046 36.922482,87.826530 38.856968,85.176971 
	C41.277424,87.422966 45.041031,89.034912 44.142876,93.416061 
	C41.850430,94.265335 39.801651,94.157402 37.407677,93.417938 
z"/>
<path fill="#845951" opacity="1.000000" stroke="none" 
	d="
M57.465485,46.733982 
	C57.811520,47.098133 57.809772,47.320133 57.767593,47.871078 
	C52.289143,47.411320 46.830170,47.723824 40.972443,47.848297 
	C45.817142,43.737190 51.541355,46.170593 57.465485,46.733982 
z"/>
<path fill="#A38274" opacity="1.000000" stroke="none" 
	d="
M40.780418,79.125946 
	C43.406456,80.304573 46.150448,81.845512 49.134880,83.642281 
	C50.052620,85.985817 50.606380,88.064270 48.456730,89.971085 
	C45.628651,86.474396 43.263512,82.981323 40.780418,79.125946 
z"/>
<path fill="#9B766A" opacity="1.000000" stroke="none" 
	d="
M68.861778,105.759888 
	C71.984749,109.167336 73.489929,113.915855 77.233566,117.545372 
	C71.078720,116.470947 69.496559,114.567955 68.902161,107.457565 
	C68.767006,106.755959 68.698051,106.456703 68.861778,105.759888 
z"/>
<path fill="#E8564D" opacity="1.000000" stroke="none" 
	d="
M48.159607,90.216530 
	C49.466007,88.445297 48.667095,86.419800 49.270264,84.289932 
	C49.864315,84.076180 50.353310,84.254250 50.970936,84.668159 
	C51.009785,87.333939 50.919998,89.763878 50.771816,92.649307 
	C49.917423,92.225060 49.121426,91.345329 48.159607,90.216530 
z"/>
<path fill="#F04F49" opacity="1.000000" stroke="none" 
	d="
M37.117256,93.470123 
	C39.113953,93.209274 41.152134,93.208923 43.530006,93.321136 
	C43.918526,93.658997 43.967354,93.884308 44.057434,94.453003 
	C42.340816,94.864693 40.582951,94.933006 38.384125,95.032013 
	C37.681690,94.618683 37.420216,94.174644 37.117256,93.470123 
z"/>
<path fill="#DF5C54" opacity="1.000000" stroke="none" 
	d="
M55.545174,114.625214 
	C56.429440,114.221901 57.418636,114.137238 58.783188,114.095589 
	C60.424995,115.063072 61.913864,114.852127 63.707867,115.007492 
	C61.257957,115.671814 58.427246,117.300247 55.545174,114.625214 
z"/>
<path fill="#DC423E" opacity="1.000000" stroke="none" 
	d="
M69.037888,105.060150 
	C69.053757,105.644867 69.013039,105.927399 68.904144,106.632576 
	C68.835968,107.055214 68.394402,107.016655 68.173714,106.996292 
	C67.750450,107.231705 67.547874,107.487473 67.230881,107.267387 
	C66.788666,104.933853 66.460861,103.076172 66.256760,100.825264 
	C68.075500,101.376167 68.215446,103.255226 69.037888,105.060150 
z"/>
<path fill="#947369" opacity="1.000000" stroke="none" 
	d="
M74.993362,56.846092 
	C73.677795,55.441406 72.670074,54.070385 71.781624,52.385353 
	C74.624786,52.080463 76.474731,52.984337 76.007843,56.545322 
	C75.713196,56.907410 75.507202,56.893585 74.993362,56.846092 
z"/>
<path fill="#D44640" opacity="1.000000" stroke="none" 
	d="
M82.284790,118.590424 
	C83.173477,117.935600 84.523956,117.669777 85.609970,116.184166 
	C85.883827,115.886154 86.082726,115.975624 86.173828,116.036751 
	C86.623840,116.759224 87.797768,117.290398 87.150719,118.117058 
	C85.923714,119.684662 84.187416,118.975227 82.284790,118.590424 
z"/>
<path fill="#E45750" opacity="1.000000" stroke="none" 
	d="
M38.473686,68.809494 
	C39.959923,68.984276 40.633358,67.468552 41.768871,66.980164 
	C43.656498,66.168282 43.081917,67.510590 42.729477,68.689575 
	C41.981152,69.270409 41.338959,69.614258 40.429710,70.033249 
	C39.635509,69.775330 39.108364,69.442268 38.473686,68.809494 
z"/>
<path fill="#EA3A36" opacity="1.000000" stroke="none" 
	d="
M34.074104,43.934109 
	C32.990265,42.879974 32.064899,41.655239 33.774376,40.143570 
	C34.264385,40.912025 34.483784,41.705948 34.740391,42.808899 
	C34.574875,43.322273 34.385498,43.538319 34.074104,43.934109 
z"/>
<path fill="#E64A43" opacity="1.000000" stroke="none" 
	d="
M64.067505,42.065704 
	C64.808868,41.369087 65.925179,40.367573 66.792168,41.452740 
	C67.371704,42.178116 66.206520,42.620289 65.224564,42.953903 
	C64.716110,42.744499 64.490669,42.487583 64.067505,42.065704 
z"/>
<path fill="#CD7569" opacity="1.000000" stroke="none" 
	d="
M67.017715,107.093353 
	C67.116470,106.791542 67.531357,106.900124 67.742188,106.938034 
	C67.279289,107.742134 69.471382,110.496773 66.089157,109.238983 
	C66.278793,108.467560 66.598885,107.931358 67.017715,107.093353 
z"/>
<path fill="#D44640" opacity="1.000000" stroke="none" 
	d="
M90.594650,113.770538 
	C90.964470,114.015343 91.100876,114.449936 91.192169,114.659393 
	C90.458511,114.883553 89.633560,114.898262 88.399979,114.906738 
	C87.991356,114.900513 87.968491,114.625816 87.963318,114.488098 
	C88.459877,113.377815 89.291756,113.312714 90.594650,113.770538 
z"/>
<path fill="#D44640" opacity="1.000000" stroke="none" 
	d="
M91.717094,115.248169 
	C92.229355,115.484123 92.603004,115.935257 93.013954,116.688705 
	C92.462624,116.845978 91.874008,116.700920 91.053658,116.355255 
	C91.074112,115.924210 91.326302,115.693787 91.717094,115.248169 
z"/>
<path fill="#D44640" opacity="1.000000" stroke="none" 
	d="
M89.665482,117.238770 
	C89.703712,117.821060 89.576447,118.677162 89.218452,119.770081 
	C89.158485,119.175453 89.329239,118.344017 89.665482,117.238770 
z"/>
<path fill="#D44640" opacity="1.000000" stroke="none" 
	d="
M77.870544,118.176498 
	C77.943260,118.052612 78.159248,118.028702 78.681610,118.115555 
	C78.663277,118.243027 78.338547,118.259750 77.870544,118.176498 
z"/>
<path fill="#926C5F" opacity="1.000000" stroke="none" 
	d="
M65.933578,83.743622 
	C62.651768,82.754128 58.993191,81.855164 57.238632,77.889740 
	C57.189011,76.803757 57.532124,76.188988 58.295502,75.435272 
	C58.840130,75.216759 59.075695,75.179443 59.661507,75.212967 
	C61.010712,75.749557 61.208195,76.680687 61.458023,77.975227 
	C62.486568,79.734413 63.985107,80.373459 65.667114,81.236427 
	C65.921448,82.009277 65.933281,82.640800 65.933578,83.743622 
z"/>
<path fill="#99D05B" opacity="1.000000" stroke="none" 
	d="
M90.930885,113.669510 
	C90.209587,114.064262 89.454704,114.113182 88.328979,114.256241 
	C87.253105,113.144218 87.015572,111.989670 88.596085,110.834930 
	C89.927208,111.256218 90.747841,112.033524 90.930885,113.669510 
z"/>
<path fill="#7D695E" opacity="1.000000" stroke="none" 
	d="
M71.004234,89.536484 
	C70.339447,89.548996 69.491219,89.446419 69.246521,88.219246 
	C69.835098,88.374031 70.375053,88.827606 71.004234,89.536484 
z"/>
<path fill="#15151A" opacity="1.000000" stroke="none" 
	d="
M94.354919,124.948395 
	C93.983650,124.762245 93.971741,124.519661 93.932243,123.910568 
	C94.783394,123.521355 95.662132,123.498650 96.976501,123.595695 
	C96.512856,124.107613 95.613571,124.499786 94.354919,124.948395 
z"/>
<path fill="#F8913C" opacity="1.000000" stroke="none" 
	d="
M61.818398,78.063492 
	C61.018539,77.701225 60.495140,77.082138 59.843178,76.180458 
	C59.423328,75.510689 59.233017,75.077713 59.159122,74.247040 
	C60.756310,71.438965 64.251778,70.277809 64.213470,66.308884 
	C65.169815,65.145950 66.084381,64.968178 67.430222,65.633835 
	C69.047470,66.679382 70.363060,67.495628 71.870697,68.579391 
	C68.740112,71.833496 65.417480,74.820084 61.818398,78.063492 
z"/>
<path fill="#311B1D" opacity="1.000000" stroke="none" 
	d="
M67.855583,65.579193 
	C66.862396,66.037117 65.992905,66.211082 64.855270,66.588959 
	C64.553764,68.927010 62.931316,70.029427 61.461002,71.642258 
	C60.311234,72.943390 59.315006,73.935066 59.181648,75.731918 
	C58.518867,76.382339 58.123474,76.810417 57.486229,77.404190 
	C57.098114,74.425766 56.951851,71.281639 56.747234,67.608810 
	C56.952114,66.444000 57.215347,65.807892 57.716244,65.056015 
	C61.352978,66.739906 64.317001,63.187443 68.085167,64.169884 
	C68.341179,64.556763 68.160233,64.926003 67.855583,65.579193 
z"/>
<path fill="#866B64" opacity="1.000000" stroke="none" 
	d="
M60.634121,61.367599 
	C60.418079,61.345177 60.318752,61.095032 60.099358,60.459412 
	C60.596321,60.168785 60.797783,60.564430 60.634121,61.367599 
z"/>
<path fill="#A65C2E" opacity="1.000000" stroke="none" 
	d="
M59.114796,75.946503 
	C59.085045,74.451805 59.255829,72.949364 59.645325,71.136108 
	C60.656696,71.452805 60.776932,72.271515 60.307663,73.567749 
	C60.001705,74.379250 59.925209,74.815575 59.781666,75.574890 
	C59.714619,75.897865 59.315331,75.938744 59.114796,75.946503 
z"/>
<path fill="#FAB84E" opacity="1.000000" stroke="none" 
	d="
M60.404686,73.867905 
	C60.055321,73.161362 60.032444,72.379807 59.936798,71.211777 
	C60.628578,68.890350 62.299633,67.885826 64.264633,66.822433 
	C66.491867,67.555122 66.685158,68.733665 65.343933,70.185555 
	C64.006584,71.633255 62.733276,73.185669 60.404686,73.867905 
z"/>
</svg>